<?xml version="1.0" standalone="no"?>
<!DOCTYPE svg PUBLIC "-//W3C//DTD SVG 20010904//EN"
 "http://www.w3.org/TR/2001/REC-SVG-20010904/DTD/svg10.dtd">
<svg version="1.0" xmlns="http://www.w3.org/2000/svg"
 width="3840.000000pt" height="3840.000000pt" viewBox="0 0 3840.000000 3840.000000"
 preserveAspectRatio="xMidYMid meet">
<metadata>
Created by potrace 1.14, written by Peter Selinger 2001-2017
</metadata>
<g transform="translate(0.000000,3840.000000) scale(0.100000,-0.100000)"
fill="#000000" stroke="none">
<path d="M22425 37413 c-16 -3 -63 -13 -104 -24 -41 -10 -87 -19 -102 -19 -27
0 -89 -19 -144 -44 -16 -7 -55 -25 -85 -38 -30 -14 -71 -29 -90 -33 -19 -4
-48 -18 -63 -31 -16 -13 -37 -24 -46 -24 -10 0 -29 -8 -42 -19 -13 -10 -33
-21 -44 -25 -11 -3 -45 -22 -75 -41 -30 -19 -62 -35 -71 -35 -10 0 -30 -11
-46 -24 -15 -13 -44 -31 -63 -40 -62 -29 -95 -48 -115 -66 -11 -10 -41 -27
-67 -38 -27 -12 -48 -25 -48 -31 0 -6 -18 -15 -40 -21 -22 -6 -44 -19 -50 -30
-5 -10 -20 -22 -32 -25 -13 -4 -37 -18 -55 -31 -17 -13 -40 -24 -51 -24 -11 0
-36 -13 -57 -30 -21 -16 -43 -30 -49 -30 -6 0 -28 -11 -47 -24 -20 -14 -49
-28 -65 -32 -16 -4 -47 -17 -69 -29 -22 -13 -58 -26 -80 -30 -22 -4 -54 -15
-72 -26 -17 -11 -62 -26 -100 -33 -37 -8 -84 -20 -103 -29 -24 -10 -104 -18
-255 -26 -121 -6 -233 -15 -250 -20 -40 -13 -175 -29 -305 -37 -72 -5 -116
-12 -140 -25 -19 -10 -64 -20 -100 -23 -115 -8 -216 -24 -251 -39 -19 -9 -87
-20 -151 -26 -65 -6 -139 -20 -165 -30 -27 -10 -86 -22 -133 -26 -46 -4 -94
-12 -105 -18 -24 -13 -80 -23 -204 -37 -52 -6 -106 -17 -120 -24 -14 -8 -73
-21 -131 -31 -58 -9 -130 -25 -160 -35 -30 -10 -91 -21 -135 -25 -44 -4 -99
-15 -122 -25 -24 -10 -64 -22 -90 -26 -27 -3 -59 -12 -73 -19 -14 -7 -59 -20
-100 -29 -41 -10 -93 -26 -115 -36 -22 -11 -58 -22 -80 -26 -22 -3 -64 -17
-93 -30 -29 -13 -55 -24 -58 -24 -3 0 -31 -13 -64 -29 -32 -16 -69 -32 -82
-36 -12 -4 -31 -14 -40 -22 -10 -9 -38 -19 -64 -24 -28 -5 -60 -21 -80 -39
-19 -16 -39 -30 -44 -30 -5 0 -34 -11 -64 -25 -30 -14 -61 -25 -68 -25 -8 0
-29 -11 -48 -25 -19 -14 -39 -25 -46 -25 -6 0 -27 -13 -45 -30 -19 -16 -50
-33 -69 -36 -19 -4 -48 -17 -65 -30 -16 -12 -48 -27 -69 -33 -21 -5 -49 -20
-62 -32 -12 -11 -60 -43 -106 -69 -46 -27 -103 -62 -128 -79 -91 -63 -118 -79
-154 -91 -20 -6 -43 -18 -51 -26 -22 -22 -100 -81 -132 -99 -15 -9 -44 -27
-63 -41 -19 -13 -42 -29 -50 -34 -8 -5 -31 -21 -50 -35 -19 -14 -50 -32 -69
-41 -19 -9 -46 -28 -61 -44 -14 -15 -53 -42 -87 -59 -34 -17 -64 -39 -68 -50
-3 -10 -25 -26 -50 -36 -25 -9 -48 -22 -52 -29 -16 -25 -215 -186 -230 -186
-5 0 -22 -13 -38 -30 -16 -16 -35 -30 -42 -30 -7 0 -32 -18 -55 -40 -24 -23
-72 -62 -107 -88 -35 -26 -90 -73 -122 -104 -31 -32 -62 -58 -69 -58 -7 0 -23
-10 -35 -22 -37 -39 -137 -126 -195 -171 -30 -23 -68 -54 -85 -70 -16 -15 -54
-49 -83 -75 -29 -26 -79 -72 -111 -102 -32 -30 -73 -66 -91 -80 -18 -14 -75
-65 -125 -115 -51 -49 -112 -106 -136 -125 -37 -30 -116 -108 -186 -182 -11
-13 -36 -34 -54 -48 -58 -44 -161 -144 -174 -170 -7 -14 -34 -40 -59 -59 -25
-19 -46 -40 -46 -47 0 -7 -12 -22 -27 -34 -16 -12 -57 -53 -92 -93 -35 -40
-74 -78 -87 -85 -13 -7 -33 -31 -44 -53 -13 -24 -34 -46 -55 -56 -19 -9 -39
-29 -46 -45 -6 -15 -36 -49 -67 -75 -30 -27 -64 -57 -74 -68 -40 -43 -88 -103
-88 -110 0 -4 -28 -35 -62 -69 -35 -33 -83 -85 -108 -114 -25 -29 -56 -65 -70
-80 -33 -36 -148 -170 -185 -217 -46 -58 -55 -66 -86 -72 -15 -3 -38 -16 -50
-29 -12 -13 -30 -24 -40 -24 -10 0 -37 -17 -61 -38 -47 -40 -183 -111 -263
-137 -68 -22 -182 -45 -225 -45 -19 0 -69 -10 -110 -21 -115 -32 -191 -49
-231 -49 -19 0 -69 -11 -109 -25 -40 -14 -86 -25 -101 -25 -15 0 -49 -11 -75
-25 -26 -14 -62 -25 -81 -25 -19 0 -62 -11 -96 -24 -34 -14 -87 -28 -117 -32
-30 -3 -65 -13 -78 -21 -24 -15 -94 -35 -166 -48 -21 -3 -48 -12 -60 -20 -12
-7 -37 -16 -56 -20 -19 -4 -44 -12 -55 -19 -11 -7 -63 -23 -115 -35 -52 -13
-104 -32 -116 -42 -12 -12 -35 -19 -57 -19 -21 0 -59 -11 -85 -24 -26 -13 -70
-29 -99 -35 -28 -7 -66 -23 -84 -37 -20 -15 -47 -24 -68 -24 -21 0 -49 -10
-72 -25 -20 -14 -59 -29 -86 -34 -28 -4 -63 -17 -78 -29 -15 -12 -34 -22 -42
-22 -8 0 -45 -13 -83 -30 -38 -16 -76 -30 -86 -30 -9 0 -40 -11 -68 -24 -153
-73 -206 -96 -218 -96 -7 0 -31 -12 -53 -25 -22 -14 -52 -25 -67 -25 -14 0
-39 -11 -55 -24 -15 -13 -44 -26 -64 -30 -21 -4 -48 -15 -60 -25 -13 -10 -35
-22 -48 -26 -24 -7 -174 -79 -201 -96 -8 -5 -35 -18 -60 -29 -25 -10 -56 -26
-70 -34 -14 -8 -114 -58 -223 -112 -108 -53 -197 -101 -197 -106 0 -5 -17 -16
-37 -24 -21 -9 -47 -24 -58 -34 -11 -10 -38 -23 -61 -28 -22 -5 -69 -30 -104
-56 -35 -25 -72 -46 -82 -46 -9 0 -33 -16 -52 -35 -20 -19 -42 -35 -50 -35 -8
0 -27 -11 -43 -23 -27 -23 -49 -36 -123 -74 -19 -10 -49 -29 -67 -43 -33 -27
-65 -48 -153 -106 -30 -20 -66 -47 -80 -59 -14 -13 -40 -30 -58 -39 -34 -17
-41 -23 -101 -76 -19 -16 -40 -30 -47 -30 -7 0 -17 -7 -22 -16 -4 -8 -20 -23
-34 -32 -21 -14 -154 -123 -243 -200 -11 -10 -31 -25 -45 -34 -14 -9 -119
-109 -233 -222 -115 -113 -212 -206 -217 -206 -4 0 -11 -11 -14 -24 -6 -25
-39 -66 -116 -145 -25 -25 -58 -68 -74 -96 -16 -27 -53 -82 -81 -120 -29 -39
-60 -88 -69 -110 -9 -21 -25 -45 -36 -52 -11 -8 -20 -20 -20 -28 0 -16 -65
-147 -97 -194 -13 -19 -23 -42 -23 -51 0 -10 -9 -29 -21 -43 -11 -15 -24 -49
-28 -77 -4 -28 -16 -58 -25 -69 -17 -18 -46 -115 -46 -153 0 -12 -10 -41 -21
-65 -12 -24 -25 -77 -30 -116 -5 -40 -14 -92 -20 -117 -33 -144 -35 -548 -2
-634 8 -23 20 -86 27 -141 8 -60 20 -111 30 -127 9 -15 22 -57 27 -95 5 -39
18 -80 29 -95 11 -15 23 -49 27 -75 3 -27 19 -72 34 -102 16 -30 29 -63 29
-75 0 -12 11 -37 24 -56 13 -19 27 -55 31 -80 4 -25 15 -59 25 -76 9 -17 25
-54 34 -82 10 -29 21 -52 26 -52 5 0 14 -17 21 -37 6 -21 23 -54 35 -73 13
-19 24 -41 24 -50 0 -8 14 -35 30 -60 16 -25 30 -53 30 -62 0 -9 11 -29 23
-45 13 -15 29 -43 35 -62 7 -18 21 -41 31 -50 11 -10 23 -30 27 -47 4 -16 12
-36 19 -44 7 -8 27 -42 45 -75 18 -33 45 -78 61 -100 52 -70 78 -109 100 -149
22 -40 111 -168 138 -198 9 -10 31 -37 49 -60 18 -24 56 -72 86 -108 29 -36
60 -78 69 -95 9 -16 33 -46 53 -65 20 -19 47 -51 59 -70 27 -41 83 -100 96
-100 5 0 9 -6 9 -13 0 -17 52 -86 65 -87 11 0 105 -88 105 -98 0 -4 21 -29 45
-57 25 -27 45 -53 45 -57 0 -4 10 -10 21 -13 12 -4 47 -32 78 -64 31 -31 65
-63 76 -71 11 -9 34 -33 50 -54 17 -21 57 -59 90 -85 33 -26 76 -63 95 -82 19
-18 47 -42 62 -54 83 -63 110 -85 154 -122 79 -68 240 -196 272 -218 17 -11
57 -39 89 -63 32 -24 85 -61 118 -83 124 -82 135 -89 135 -99 0 -5 21 -21 48
-35 26 -14 72 -41 102 -60 30 -19 65 -39 77 -44 11 -5 32 -21 45 -34 12 -14
50 -39 83 -57 33 -17 69 -40 80 -50 12 -11 36 -25 55 -31 19 -7 44 -19 55 -29
23 -19 108 -70 146 -86 14 -7 38 -23 52 -38 14 -14 37 -26 50 -26 13 0 36 -9
50 -20 14 -12 41 -26 59 -32 18 -6 45 -20 60 -30 15 -10 42 -24 60 -31 30 -11
131 -63 168 -87 27 -17 167 -80 178 -80 6 0 23 -11 39 -24 15 -13 47 -26 72
-29 28 -3 53 -15 71 -32 15 -15 47 -31 70 -36 24 -5 53 -18 66 -28 13 -10 41
-22 61 -26 20 -4 47 -15 60 -25 12 -10 44 -21 70 -25 26 -4 66 -17 88 -30 22
-12 53 -26 69 -29 17 -4 41 -16 56 -26 14 -10 47 -21 73 -25 26 -4 64 -18 83
-31 19 -13 39 -24 43 -24 5 0 25 -13 46 -30 21 -16 46 -30 55 -30 10 0 37 -16
60 -35 23 -19 46 -35 51 -35 8 0 22 -11 86 -69 18 -16 70 -58 115 -94 112 -87
250 -234 367 -390 25 -32 52 -62 61 -67 10 -5 23 -23 30 -41 7 -17 21 -41 31
-52 59 -71 89 -110 89 -118 0 -5 19 -37 43 -70 41 -60 113 -191 197 -359 23
-47 53 -98 66 -113 13 -16 24 -37 24 -46 0 -10 14 -43 30 -74 17 -31 30 -70
30 -85 0 -16 11 -41 24 -57 14 -16 29 -47 35 -70 6 -23 19 -52 31 -65 13 -15
20 -37 20 -66 0 -33 6 -49 25 -66 17 -16 27 -39 31 -73 4 -28 15 -67 26 -87
10 -21 25 -68 34 -105 8 -38 21 -75 28 -83 8 -8 16 -36 19 -62 4 -27 18 -70
31 -96 14 -27 30 -85 37 -133 6 -46 20 -98 30 -114 10 -17 23 -60 28 -96 6
-37 18 -85 26 -108 8 -23 21 -80 29 -126 8 -46 22 -98 32 -116 9 -19 20 -72
24 -124 4 -49 14 -106 23 -125 8 -19 23 -93 32 -164 9 -72 23 -148 32 -170 8
-23 18 -90 23 -151 4 -65 16 -134 28 -170 18 -55 26 -104 37 -250 7 -94 14
-150 29 -220 8 -38 17 -137 21 -218 3 -81 13 -169 21 -195 7 -26 14 -61 14
-79 0 -17 4 -42 9 -55 5 -13 12 -122 15 -243 7 -233 15 -306 34 -342 9 -17 10
-42 3 -99 -7 -56 -6 -86 3 -113 9 -24 13 -115 15 -281 1 -135 4 -315 6 -400 9
-325 7 -718 -4 -738 -10 -19 -18 -20 -119 -15 l-108 6 -49 -38 c-27 -20 -54
-43 -60 -50 -5 -7 -35 -29 -65 -49 -105 -69 -156 -108 -168 -127 -7 -10 -17
-19 -23 -19 -10 0 -20 -7 -155 -117 -40 -32 -84 -67 -100 -78 -36 -26 -52 -42
-64 -66 -6 -10 -17 -19 -25 -19 -9 0 -25 -11 -37 -25 -12 -14 -27 -25 -34 -25
-6 0 -41 -28 -76 -62 -36 -35 -89 -81 -118 -103 -29 -22 -96 -84 -150 -137
-53 -53 -110 -102 -127 -110 -17 -7 -47 -33 -67 -57 -20 -24 -56 -57 -79 -74
-23 -16 -67 -55 -97 -86 -30 -31 -95 -92 -143 -136 -49 -44 -94 -86 -100 -94
-41 -49 -221 -221 -232 -221 -7 0 -28 -19 -46 -42 -18 -24 -70 -79 -116 -124
-46 -44 -83 -86 -83 -92 0 -7 -11 -18 -25 -24 -14 -6 -25 -15 -25 -20 0 -5
-40 -49 -90 -97 -49 -49 -90 -94 -90 -100 0 -6 -3 -11 -7 -11 -12 0 -137 -122
-156 -152 -9 -14 -24 -29 -34 -32 -10 -3 -31 -27 -47 -52 -16 -25 -38 -50 -50
-56 -12 -5 -39 -32 -61 -60 -22 -27 -56 -66 -75 -87 -19 -21 -57 -64 -85 -95
-27 -32 -73 -81 -101 -110 -28 -28 -54 -61 -58 -73 -4 -12 -15 -24 -24 -27
-10 -3 -35 -28 -56 -55 -22 -27 -50 -55 -63 -62 -12 -7 -26 -21 -29 -32 -4
-12 -36 -53 -73 -91 -37 -39 -80 -89 -96 -111 -17 -22 -35 -44 -41 -50 -6 -5
-39 -44 -73 -85 -77 -92 -109 -130 -171 -200 -26 -30 -62 -73 -79 -95 -26 -35
-69 -86 -121 -144 -42 -47 -90 -110 -90 -119 0 -5 -25 -34 -55 -63 -30 -30
-55 -58 -55 -64 0 -5 -14 -18 -30 -27 -23 -13 -30 -24 -30 -47 0 -19 -8 -36
-22 -48 -22 -17 -60 -61 -111 -126 -12 -15 -37 -44 -54 -64 -18 -20 -33 -39
-33 -42 0 -3 -11 -19 -25 -35 -14 -16 -25 -33 -25 -38 0 -5 -17 -26 -37 -47
-88 -89 -125 -135 -139 -172 -9 -21 -20 -39 -25 -39 -4 0 -25 -25 -45 -56 -20
-30 -47 -62 -60 -70 -13 -9 -29 -33 -36 -54 -7 -21 -32 -60 -55 -87 -46 -52
-83 -101 -110 -147 -10 -16 -30 -40 -46 -54 -15 -14 -27 -31 -27 -38 0 -7 -21
-34 -46 -60 -26 -26 -50 -61 -55 -78 -5 -17 -36 -60 -69 -94 -33 -35 -60 -71
-60 -81 0 -24 -35 -68 -68 -85 -15 -7 -58 -19 -97 -25 -38 -7 -90 -18 -115
-26 -25 -7 -85 -19 -135 -25 -49 -6 -108 -17 -130 -24 -66 -21 -136 -36 -215
-45 -41 -5 -88 -16 -105 -25 -16 -9 -48 -16 -70 -16 -22 0 -53 -7 -70 -16 -42
-22 -132 -44 -177 -44 -21 0 -64 -10 -96 -21 -31 -12 -90 -28 -131 -35 -41 -8
-93 -23 -116 -34 -24 -12 -62 -20 -90 -20 -27 0 -62 -4 -79 -9 -128 -40 -167
-50 -209 -56 -27 -3 -70 -18 -97 -31 -36 -18 -60 -24 -89 -20 -25 2 -47 -1
-58 -10 -10 -7 -36 -14 -58 -14 -23 0 -45 -4 -50 -8 -13 -11 -87 -32 -114 -32
-11 0 -38 -9 -58 -20 -21 -11 -50 -20 -65 -20 -31 0 -127 -24 -155 -38 -10 -5
-45 -13 -77 -17 -33 -4 -71 -11 -85 -17 -45 -17 -133 -39 -226 -55 -49 -8
-122 -26 -162 -39 -39 -13 -86 -24 -103 -24 -17 0 -44 -7 -60 -15 -17 -9 -72
-22 -122 -30 -96 -15 -129 -23 -212 -49 -27 -9 -66 -16 -86 -16 -22 0 -48 -8
-63 -20 -14 -11 -40 -20 -58 -20 -48 0 -149 -20 -184 -36 -38 -17 -111 -33
-153 -34 -18 0 -59 -9 -90 -19 -32 -11 -103 -26 -157 -35 -55 -8 -140 -25
-190 -37 -49 -13 -108 -22 -129 -21 -23 1 -52 -6 -70 -17 -18 -11 -60 -21
-101 -24 -215 -19 -277 -26 -288 -35 -13 -11 -60 -18 -227 -32 -269 -24 -332
-30 -455 -44 -71 -8 -178 -15 -237 -15 -63 -1 -125 -7 -150 -15 -49 -16 -114
-27 -173 -31 -22 -1 -70 -6 -107 -10 l-68 -7 0 -3514 0 -3514 19200 0 19200 0
0 83 c0 117 -17 217 -39 242 -11 11 -22 38 -26 60 -4 22 -15 52 -25 66 -10 14
-23 45 -30 68 -6 23 -22 58 -35 78 -14 20 -25 43 -25 52 0 9 -14 36 -30 60
-17 24 -30 51 -30 59 0 9 -6 23 -14 31 -7 9 -34 57 -60 106 -25 50 -52 97 -60
105 -8 9 -24 36 -36 60 -24 53 -56 105 -87 144 -13 16 -23 33 -23 37 0 5 -13
28 -30 51 -16 22 -30 47 -30 53 0 7 -7 19 -17 26 -9 8 -22 28 -30 44 -7 17
-32 55 -54 85 -22 30 -48 66 -57 80 -9 14 -28 39 -42 56 -14 18 -38 55 -55 83
-16 29 -50 73 -73 99 -24 26 -51 61 -59 77 -9 17 -24 37 -33 45 -9 8 -23 26
-30 40 -7 14 -21 34 -32 45 -37 39 -125 151 -150 190 -14 22 -52 67 -83 100
-31 33 -65 73 -75 89 -24 37 -151 187 -218 256 -30 30 -59 64 -64 74 -6 11
-35 45 -65 75 -29 31 -88 94 -130 141 -42 47 -118 128 -168 180 -50 52 -106
116 -125 143 -18 26 -37 47 -42 47 -5 0 -94 87 -198 192 -104 106 -192 196
-197 199 -17 14 -150 137 -224 209 -43 41 -95 90 -117 108 -22 18 -69 59 -104
93 -34 33 -79 73 -98 90 -19 16 -69 62 -110 100 -41 39 -92 79 -112 90 -20 10
-39 23 -43 29 -12 19 -258 200 -272 200 -5 0 -26 14 -47 30 -22 17 -46 30 -53
30 -7 0 -22 9 -33 20 -18 18 -43 33 -141 87 -22 12 -46 26 -54 33 -14 12 -74
44 -210 114 -49 26 -96 53 -105 60 -16 15 -162 86 -175 86 -5 0 -23 11 -41 25
-18 14 -39 25 -46 25 -7 1 -38 14 -68 30 -30 17 -63 30 -72 30 -9 0 -29 11
-45 24 -16 13 -47 29 -70 35 -22 6 -46 18 -53 26 -6 7 -28 19 -48 26 -54 17
-196 79 -202 89 -5 7 -96 47 -174 77 -22 8 -51 22 -65 32 -14 10 -44 24 -66
31 -22 7 -60 24 -84 37 -24 12 -49 23 -56 23 -7 0 -24 10 -39 21 -15 12 -46
26 -69 31 -23 5 -51 18 -62 28 -11 10 -39 23 -61 29 -23 6 -52 19 -65 30 -13
10 -40 22 -59 26 -19 4 -53 17 -75 30 -22 12 -51 26 -65 30 -14 4 -38 16 -53
27 -15 11 -44 24 -65 30 -20 5 -44 16 -53 24 -8 8 -42 23 -74 34 -32 11 -63
25 -70 30 -12 10 -82 40 -187 80 -26 10 -59 27 -74 39 -15 12 -36 21 -48 21
-12 0 -37 11 -55 24 -19 14 -48 28 -65 31 -17 4 -49 17 -71 30 -22 12 -56 26
-75 30 -19 4 -51 17 -70 30 -19 13 -50 26 -69 30 -18 4 -48 15 -65 25 -17 10
-47 21 -66 25 -19 4 -49 16 -66 26 -17 10 -39 19 -48 19 -9 0 -45 13 -79 29
-34 16 -78 32 -97 36 -19 4 -39 11 -45 15 -5 4 -62 22 -125 39 -63 17 -126 37
-140 45 -14 7 -49 19 -78 25 -29 6 -65 17 -80 25 -15 7 -47 17 -72 20 -69 10
-141 26 -185 41 -22 8 -71 16 -110 20 -117 10 -237 24 -300 34 -33 6 -217 17
-410 26 -192 9 -363 20 -379 26 -39 12 -304 32 -333 24 -34 -8 -101 12 -113
35 -5 10 -17 25 -25 33 -8 9 -22 41 -30 73 -8 31 -21 64 -29 73 -8 9 -17 33
-21 54 -4 20 -16 48 -26 60 -10 13 -23 46 -30 73 -6 27 -22 68 -35 91 -13 23
-24 50 -24 60 0 10 -14 45 -30 78 -17 33 -30 66 -30 73 0 8 -11 35 -23 61 -13
26 -27 63 -31 83 -3 20 -15 47 -25 60 -11 13 -24 44 -31 68 -7 24 -20 55 -30
67 -10 13 -21 39 -25 60 -3 20 -20 61 -36 91 -16 30 -29 62 -29 71 0 9 -11 39
-25 66 -13 28 -25 57 -25 65 0 8 -11 37 -24 65 -60 124 -86 185 -86 198 0 7
-11 36 -25 63 -14 27 -30 67 -36 89 -6 22 -22 52 -35 68 -14 17 -24 41 -24 61
0 18 -10 46 -24 65 -13 17 -29 52 -35 76 -6 24 -20 59 -30 77 -10 18 -22 47
-26 65 -3 17 -13 37 -20 43 -8 6 -21 35 -29 64 -9 29 -24 63 -35 75 -11 13
-23 44 -27 69 -3 26 -17 63 -29 82 -13 19 -28 54 -34 76 -6 23 -17 47 -25 53
-7 6 -19 33 -26 59 -7 26 -21 63 -31 82 -30 59 -77 164 -84 190 -8 25 -47 115
-90 205 -13 28 -27 64 -30 81 -3 18 -15 40 -26 50 -10 9 -19 27 -19 39 0 12
-11 44 -25 71 -14 27 -32 70 -41 96 -8 25 -21 52 -29 58 -8 6 -17 26 -20 43
-4 18 -15 48 -26 67 -10 19 -52 113 -94 208 -41 96 -82 183 -89 195 -8 12 -20
42 -26 67 -7 25 -17 52 -24 60 -7 8 -20 36 -30 62 -9 25 -23 52 -31 58 -8 6
-17 32 -21 57 -3 24 -17 57 -30 72 -12 15 -26 41 -30 57 -4 16 -18 49 -31 73
-12 24 -23 52 -23 61 0 10 -11 34 -25 54 -14 20 -28 49 -31 64 -4 15 -17 45
-29 67 -13 22 -25 55 -29 73 -3 19 -17 47 -31 64 -14 16 -25 39 -25 51 0 12
-11 38 -24 57 -12 19 -29 53 -36 75 -7 22 -21 52 -31 66 -10 14 -21 38 -24 55
-4 16 -18 45 -30 64 -13 19 -26 51 -30 70 -4 19 -16 43 -26 52 -10 10 -21 35
-25 55 -3 21 -16 54 -28 73 -13 19 -28 52 -35 72 -7 20 -18 41 -25 48 -8 6
-17 27 -21 47 -4 20 -15 48 -26 61 -10 13 -26 50 -35 83 -9 32 -25 66 -35 75
-11 9 -19 23 -19 29 0 7 -13 37 -30 68 -16 31 -30 67 -30 80 0 13 -11 36 -25
51 -13 14 -29 44 -35 65 -5 21 -16 44 -24 50 -8 6 -19 31 -25 55 -6 23 -20 54
-31 68 -11 15 -23 41 -27 60 -3 18 -19 51 -34 72 -16 22 -29 45 -29 51 0 5
-10 28 -21 50 -12 22 -27 60 -35 85 -9 31 -25 54 -46 70 -37 28 -98 33 -540
48 -217 7 -249 13 -234 44 3 7 24 46 45 86 22 39 43 82 47 95 3 12 13 29 21
38 8 10 20 40 28 68 7 28 25 65 39 82 14 17 26 36 26 44 0 16 78 173 90 180 5
3 12 20 15 38 7 29 47 117 80 177 8 14 22 41 30 60 9 19 27 56 41 81 13 26 24
53 24 61 0 8 11 29 24 47 13 17 29 51 35 75 6 23 19 53 29 67 10 13 24 43 30
66 7 23 17 45 22 48 12 8 80 150 80 169 0 7 13 32 29 57 16 24 31 60 35 80 4
20 15 47 26 59 11 13 24 38 29 56 5 19 19 46 30 60 12 15 21 37 21 49 0 12 13
41 29 66 16 24 32 60 36 79 4 19 18 48 31 63 13 16 24 36 24 45 0 9 11 39 24
67 81 169 96 203 96 212 0 6 9 21 19 35 11 13 23 38 27 54 3 16 17 45 29 64
13 19 26 51 29 71 3 19 17 51 31 69 14 19 25 41 25 50 0 10 11 38 25 63 13 25
29 66 35 89 7 24 18 50 26 58 7 9 20 36 29 60 18 51 55 134 91 201 13 26 24
58 24 72 0 13 11 41 25 62 14 20 29 51 32 69 3 17 16 47 28 66 13 19 26 51 30
70 4 19 16 47 26 61 10 14 23 48 30 75 6 27 18 56 26 65 8 10 20 40 28 68 7
28 22 65 33 83 10 18 24 54 31 80 6 26 19 62 30 80 10 18 22 64 25 102 4 37
15 94 26 125 10 31 22 81 26 111 4 36 15 65 30 83 13 16 24 39 24 51 0 12 16
53 35 92 19 38 35 74 35 80 0 6 9 19 20 29 11 10 20 23 20 29 0 20 103 176
138 209 7 7 46 53 87 104 76 93 118 133 140 133 6 0 31 23 56 51 24 28 51 58
60 67 18 19 67 91 88 131 7 14 22 35 32 46 9 11 21 34 25 50 4 17 18 43 31 58
12 16 23 39 23 53 0 13 13 38 30 56 20 20 30 41 30 61 0 17 11 47 24 66 13 20
29 61 35 91 7 30 19 62 27 71 8 9 22 45 30 80 8 35 22 71 31 81 8 9 17 39 20
65 5 53 21 103 33 103 11 0 28 49 33 99 3 24 15 57 27 74 14 19 24 50 27 88 4
44 11 63 29 80 20 18 24 33 24 77 0 41 7 66 25 97 13 23 28 69 34 103 5 33 21
85 35 116 29 63 23 61 201 71 128 7 277 21 320 29 17 3 159 13 316 21 168 9
306 21 335 29 44 12 309 32 374 27 34 -3 172 17 247 34 34 8 97 15 140 15 89
0 328 25 388 39 22 6 114 15 205 21 91 7 200 20 243 31 43 10 122 21 175 25
53 3 133 13 177 21 195 35 250 43 259 40 14 -5 150 16 236 36 36 9 115 21 175
27 61 7 126 18 145 25 19 7 76 18 126 24 50 6 140 22 200 35 60 14 134 27 166
30 31 2 67 12 81 21 15 9 69 21 133 29 60 7 123 20 141 29 17 9 64 21 105 28
40 6 108 21 151 35 43 13 90 24 105 24 15 0 45 9 67 20 22 11 73 26 115 34 41
8 95 24 120 35 25 11 56 21 70 21 14 0 46 11 72 25 26 14 57 25 70 25 13 0 50
13 84 29 34 16 76 32 95 36 19 4 52 18 74 30 22 13 54 26 71 30 18 3 40 15 49
25 9 10 30 22 46 25 15 4 38 14 51 24 13 10 57 36 99 59 145 76 291 215 329
312 7 19 19 42 25 50 19 24 27 169 11 210 -44 113 -60 147 -79 172 -12 15 -35
46 -52 69 -16 22 -42 53 -57 67 -15 15 -30 39 -33 55 -4 15 -16 32 -26 38 -10
5 -26 23 -35 40 -16 32 -337 359 -352 359 -5 0 -50 41 -100 90 -51 50 -96 90
-100 90 -4 0 -23 15 -42 33 -19 17 -82 72 -140 121 -58 49 -109 95 -115 101
-5 7 -24 19 -42 28 -17 9 -37 22 -45 30 -7 7 -42 39 -78 71 -36 32 -81 73
-100 90 -19 18 -46 39 -60 48 -14 8 -45 34 -70 56 -67 60 -131 112 -139 112
-4 0 -30 22 -59 50 -28 27 -64 56 -79 65 -40 23 -92 61 -118 87 -12 13 -37 34
-54 48 -17 14 -42 34 -54 45 -13 11 -36 29 -52 39 -17 11 -50 36 -75 57 -25
21 -96 81 -158 133 -63 53 -118 96 -123 96 -5 0 -51 36 -103 80 -52 44 -120
97 -151 119 -32 22 -67 50 -79 61 -11 12 -66 55 -121 95 -55 40 -113 87 -130
105 -16 17 -43 39 -60 47 -16 9 -36 24 -43 34 -7 11 -19 19 -25 19 -13 0 -48
27 -141 108 -34 30 -71 59 -83 64 -13 6 -23 15 -23 19 0 5 -33 30 -72 56 -40
26 -103 72 -140 102 -37 31 -99 81 -138 111 -40 30 -93 72 -118 94 -25 21 -63
50 -84 63 -21 14 -38 29 -38 34 0 5 -15 16 -32 25 -18 9 -45 29 -60 43 -42 40
-64 58 -89 72 -13 6 -51 36 -86 65 -35 30 -67 54 -71 54 -5 0 -35 25 -68 55
-32 30 -64 55 -70 55 -6 0 -19 9 -30 21 -10 12 -35 29 -54 39 -19 10 -58 40
-86 67 -29 26 -71 59 -94 73 -23 14 -68 49 -99 78 -31 29 -69 60 -86 69 -16 9
-52 34 -80 58 -27 23 -58 46 -67 51 -9 5 -40 30 -70 56 -29 26 -78 65 -108 87
-55 41 -75 57 -140 111 -19 16 -72 57 -116 92 -45 35 -110 87 -145 115 -106
88 -112 92 -179 141 -74 54 -85 62 -132 106 -19 17 -56 49 -84 71 -27 22 -51
42 -54 45 -3 3 -18 14 -35 24 -16 10 -40 32 -53 47 -13 16 -29 29 -35 29 -7 0
-37 24 -69 53 -31 28 -69 62 -84 74 -88 67 -267 220 -314 268 -8 9 -33 32 -54
53 -75 71 -110 121 -121 173 -4 19 -17 50 -30 69 -13 19 -26 51 -30 70 -4 19
-17 53 -30 75 -12 22 -25 56 -29 75 -3 19 -16 44 -27 56 -14 15 -22 41 -26 83
-4 39 -12 67 -24 80 -11 11 -24 44 -31 73 -6 29 -22 64 -35 79 -15 16 -23 37
-23 60 0 21 -9 48 -24 68 -14 18 -28 50 -31 72 -4 21 -17 54 -30 73 -13 19
-27 56 -31 81 -3 25 -12 51 -19 58 -20 20 -32 50 -40 94 -3 23 -17 54 -31 68
-15 16 -24 38 -24 59 0 18 -10 46 -24 65 -13 18 -27 48 -31 68 -3 20 -17 53
-31 74 -13 21 -24 52 -24 67 0 17 -12 45 -29 66 -16 20 -32 51 -35 70 -4 18
-15 41 -25 50 -11 10 -22 38 -26 67 -4 27 -15 59 -25 71 -22 29 -87 191 -96
241 -3 21 -17 51 -30 67 -16 19 -24 40 -24 66 0 25 -7 45 -21 61 -13 13 -25
44 -30 74 -5 29 -19 68 -33 88 -14 20 -28 56 -32 81 -4 24 -20 73 -36 107 -15
34 -28 69 -28 78 0 16 -40 123 -75 200 -12 28 -28 72 -34 98 -7 27 -18 59 -25
70 -8 12 -17 38 -21 57 -4 19 -18 55 -31 79 -13 24 -24 60 -24 81 0 23 -9 51
-25 75 -14 20 -32 62 -40 92 -8 31 -19 61 -25 67 -5 7 -17 41 -26 77 -9 35
-24 80 -34 99 -9 19 -21 53 -24 75 -4 22 -16 54 -27 71 -10 17 -26 59 -34 93
-9 34 -23 79 -32 99 -31 74 -42 139 -36 205 4 46 1 77 -10 108 -11 31 -19 114
-27 277 -6 128 -16 268 -21 310 -6 42 -13 113 -18 158 -4 44 -10 85 -14 90 -3
6 -9 82 -12 170 -4 87 -15 202 -25 254 -10 52 -24 174 -30 270 -7 96 -17 184
-23 195 -6 11 -12 38 -13 60 -7 115 -43 396 -57 440 -8 28 -18 102 -22 165 -5
77 -13 129 -25 158 -12 25 -23 90 -30 162 -6 66 -20 146 -31 177 -11 32 -22
87 -25 123 -3 36 -14 92 -24 125 -25 83 -40 149 -40 178 0 14 -13 51 -30 82
-16 31 -30 70 -30 85 0 16 -13 57 -30 92 -16 34 -30 71 -30 80 0 17 -30 68
-69 119 -11 15 -25 38 -30 52 -6 14 -25 34 -43 43 -18 9 -42 24 -53 34 -11 10
-31 21 -45 25 -14 4 -36 16 -50 25 -14 10 -55 26 -90 35 -36 8 -74 20 -85 25
-88 41 -377 38 -524 -4 -30 -9 -97 -18 -150 -22 -59 -4 -115 -14 -146 -26 -33
-13 -92 -23 -175 -29 -164 -12 -251 -23 -277 -37 -36 -20 -121 -14 -202 14
-79 27 -122 59 -148 109 -9 17 -19 32 -23 35 -4 3 -29 37 -55 75 -26 39 -57
80 -69 91 -11 12 -34 40 -50 63 -17 22 -33 41 -37 41 -4 0 -27 16 -51 36 -23
19 -50 41 -58 48 -9 7 -37 22 -63 35 -26 13 -47 27 -47 31 0 5 -15 11 -32 15
-18 3 -53 14 -78 24 -81 33 -144 51 -180 51 -19 1 -60 9 -90 20 -52 18 -138
24 -215 13z"/>
</g>
</svg>
